<mxfile host="app.diagrams.net" modified="2023-07-31T16:15:04.912Z" agent="Mozilla/5.0 (Macintosh; Intel Mac OS X 10_15_7) AppleWebKit/537.36 (KHTML, like Gecko) Chrome/115.0.0.0 Safari/537.36" version="21.6.6" etag="PUuhHdq-DG9EwD8vm04Y" type="device">
  <diagram id="De9Vc6kwO28veqgYgvxa" name="Page-1">
    <mxGraphModel dx="1698" dy="764" grid="1" gridSize="10" guides="1" tooltips="1" connect="1" arrows="1" fold="1" page="1" pageScale="1" pageWidth="1169" pageHeight="827" math="0" shadow="0">
      <root>
        <mxCell id="0" />
        <mxCell id="1" parent="0" />
        <mxCell id="oU4J2LEEc_ZFmKRDee8j-250" value="" style="whiteSpace=wrap;html=1;aspect=fixed;" vertex="1" parent="1">
          <mxGeometry x="170" y="370" width="40" height="40" as="geometry" />
        </mxCell>
        <mxCell id="oU4J2LEEc_ZFmKRDee8j-251" style="edgeStyle=none;html=1;exitX=0;exitY=0.5;exitDx=0;exitDy=0;entryX=0;entryY=0.5;entryDx=0;entryDy=0;" edge="1" parent="1" target="oU4J2LEEc_ZFmKRDee8j-253">
          <mxGeometry relative="1" as="geometry">
            <mxPoint x="210" y="390" as="sourcePoint" />
          </mxGeometry>
        </mxCell>
        <mxCell id="oU4J2LEEc_ZFmKRDee8j-252" style="edgeStyle=none;html=1;exitX=1;exitY=0.5;exitDx=0;exitDy=0;entryX=0;entryY=0.5;entryDx=0;entryDy=0;" edge="1" parent="1" source="oU4J2LEEc_ZFmKRDee8j-253">
          <mxGeometry relative="1" as="geometry">
            <mxPoint x="330" y="390" as="targetPoint" />
          </mxGeometry>
        </mxCell>
        <mxCell id="oU4J2LEEc_ZFmKRDee8j-253" value="" style="whiteSpace=wrap;html=1;aspect=fixed;" vertex="1" parent="1">
          <mxGeometry x="250" y="595" width="40" height="40" as="geometry" />
        </mxCell>
        <mxCell id="oU4J2LEEc_ZFmKRDee8j-254" style="edgeStyle=none;html=1;exitX=0;exitY=0.5;exitDx=0;exitDy=0;entryX=0;entryY=0.5;entryDx=0;entryDy=0;" edge="1" parent="1" target="oU4J2LEEc_ZFmKRDee8j-256">
          <mxGeometry relative="1" as="geometry">
            <mxPoint x="210" y="390" as="sourcePoint" />
          </mxGeometry>
        </mxCell>
        <mxCell id="oU4J2LEEc_ZFmKRDee8j-255" style="edgeStyle=none;html=1;exitX=1;exitY=0.5;exitDx=0;exitDy=0;" edge="1" parent="1" source="oU4J2LEEc_ZFmKRDee8j-256">
          <mxGeometry relative="1" as="geometry">
            <mxPoint x="330" y="390" as="targetPoint" />
          </mxGeometry>
        </mxCell>
        <mxCell id="oU4J2LEEc_ZFmKRDee8j-256" value="" style="whiteSpace=wrap;html=1;aspect=fixed;" vertex="1" parent="1">
          <mxGeometry x="250" y="545" width="40" height="40" as="geometry" />
        </mxCell>
        <mxCell id="oU4J2LEEc_ZFmKRDee8j-257" style="edgeStyle=none;html=1;exitX=1;exitY=0.5;exitDx=0;exitDy=0;entryX=0;entryY=0.5;entryDx=0;entryDy=0;" edge="1" parent="1" source="oU4J2LEEc_ZFmKRDee8j-250" target="oU4J2LEEc_ZFmKRDee8j-259">
          <mxGeometry relative="1" as="geometry" />
        </mxCell>
        <mxCell id="oU4J2LEEc_ZFmKRDee8j-258" style="edgeStyle=none;html=1;exitX=1;exitY=0.5;exitDx=0;exitDy=0;" edge="1" parent="1" source="oU4J2LEEc_ZFmKRDee8j-259">
          <mxGeometry relative="1" as="geometry">
            <mxPoint x="330" y="390" as="targetPoint" />
          </mxGeometry>
        </mxCell>
        <mxCell id="oU4J2LEEc_ZFmKRDee8j-259" value="" style="whiteSpace=wrap;html=1;aspect=fixed;" vertex="1" parent="1">
          <mxGeometry x="250" y="495" width="40" height="40" as="geometry" />
        </mxCell>
        <mxCell id="oU4J2LEEc_ZFmKRDee8j-260" style="edgeStyle=none;html=1;exitX=1;exitY=0.5;exitDx=0;exitDy=0;entryX=0;entryY=0.5;entryDx=0;entryDy=0;" edge="1" parent="1" source="oU4J2LEEc_ZFmKRDee8j-250" target="oU4J2LEEc_ZFmKRDee8j-262">
          <mxGeometry relative="1" as="geometry" />
        </mxCell>
        <mxCell id="oU4J2LEEc_ZFmKRDee8j-261" style="edgeStyle=none;html=1;exitX=1;exitY=0.5;exitDx=0;exitDy=0;" edge="1" parent="1" source="oU4J2LEEc_ZFmKRDee8j-262">
          <mxGeometry relative="1" as="geometry">
            <mxPoint x="330" y="390" as="targetPoint" />
          </mxGeometry>
        </mxCell>
        <mxCell id="oU4J2LEEc_ZFmKRDee8j-262" value="" style="whiteSpace=wrap;html=1;aspect=fixed;" vertex="1" parent="1">
          <mxGeometry x="250" y="445" width="40" height="40" as="geometry" />
        </mxCell>
        <mxCell id="oU4J2LEEc_ZFmKRDee8j-263" style="edgeStyle=none;html=1;exitX=0;exitY=0.5;exitDx=0;exitDy=0;entryX=0;entryY=0.5;entryDx=0;entryDy=0;" edge="1" parent="1" target="oU4J2LEEc_ZFmKRDee8j-265">
          <mxGeometry relative="1" as="geometry">
            <mxPoint x="210" y="390" as="sourcePoint" />
          </mxGeometry>
        </mxCell>
        <mxCell id="oU4J2LEEc_ZFmKRDee8j-264" style="edgeStyle=none;html=1;exitX=1;exitY=0.5;exitDx=0;exitDy=0;entryX=0;entryY=0.5;entryDx=0;entryDy=0;" edge="1" parent="1" source="oU4J2LEEc_ZFmKRDee8j-265">
          <mxGeometry relative="1" as="geometry">
            <mxPoint x="330" y="390" as="targetPoint" />
          </mxGeometry>
        </mxCell>
        <mxCell id="oU4J2LEEc_ZFmKRDee8j-265" value="" style="whiteSpace=wrap;html=1;aspect=fixed;" vertex="1" parent="1">
          <mxGeometry x="250" y="395" width="40" height="40" as="geometry" />
        </mxCell>
        <mxCell id="oU4J2LEEc_ZFmKRDee8j-266" style="edgeStyle=none;html=1;exitX=0;exitY=0.5;exitDx=0;exitDy=0;entryX=0;entryY=0.5;entryDx=0;entryDy=0;" edge="1" parent="1" target="oU4J2LEEc_ZFmKRDee8j-268">
          <mxGeometry relative="1" as="geometry">
            <mxPoint x="210" y="390" as="sourcePoint" />
          </mxGeometry>
        </mxCell>
        <mxCell id="oU4J2LEEc_ZFmKRDee8j-267" style="edgeStyle=none;html=1;exitX=1;exitY=0.5;exitDx=0;exitDy=0;" edge="1" parent="1" source="oU4J2LEEc_ZFmKRDee8j-268">
          <mxGeometry relative="1" as="geometry">
            <mxPoint x="330" y="390" as="targetPoint" />
          </mxGeometry>
        </mxCell>
        <mxCell id="oU4J2LEEc_ZFmKRDee8j-268" value="" style="whiteSpace=wrap;html=1;aspect=fixed;" vertex="1" parent="1">
          <mxGeometry x="250" y="345" width="40" height="40" as="geometry" />
        </mxCell>
        <mxCell id="oU4J2LEEc_ZFmKRDee8j-269" style="edgeStyle=none;html=1;exitX=0;exitY=0.5;exitDx=0;exitDy=0;entryX=0;entryY=0.5;entryDx=0;entryDy=0;" edge="1" parent="1" target="oU4J2LEEc_ZFmKRDee8j-271">
          <mxGeometry relative="1" as="geometry">
            <mxPoint x="210" y="390" as="sourcePoint" />
          </mxGeometry>
        </mxCell>
        <mxCell id="oU4J2LEEc_ZFmKRDee8j-270" style="edgeStyle=none;html=1;exitX=1;exitY=0.5;exitDx=0;exitDy=0;entryX=0;entryY=0.5;entryDx=0;entryDy=0;" edge="1" parent="1" source="oU4J2LEEc_ZFmKRDee8j-271">
          <mxGeometry relative="1" as="geometry">
            <mxPoint x="330" y="390" as="targetPoint" />
          </mxGeometry>
        </mxCell>
        <mxCell id="oU4J2LEEc_ZFmKRDee8j-271" value="" style="whiteSpace=wrap;html=1;aspect=fixed;" vertex="1" parent="1">
          <mxGeometry x="250" y="295" width="40" height="40" as="geometry" />
        </mxCell>
        <mxCell id="oU4J2LEEc_ZFmKRDee8j-272" style="edgeStyle=none;html=1;exitX=0;exitY=0.5;exitDx=0;exitDy=0;entryX=0;entryY=0.5;entryDx=0;entryDy=0;" edge="1" parent="1" target="oU4J2LEEc_ZFmKRDee8j-274">
          <mxGeometry relative="1" as="geometry">
            <mxPoint x="210" y="390" as="sourcePoint" />
          </mxGeometry>
        </mxCell>
        <mxCell id="oU4J2LEEc_ZFmKRDee8j-273" style="edgeStyle=none;html=1;exitX=1;exitY=0.5;exitDx=0;exitDy=0;entryX=0;entryY=0.5;entryDx=0;entryDy=0;" edge="1" parent="1" source="oU4J2LEEc_ZFmKRDee8j-274">
          <mxGeometry relative="1" as="geometry">
            <mxPoint x="330" y="390" as="targetPoint" />
          </mxGeometry>
        </mxCell>
        <mxCell id="oU4J2LEEc_ZFmKRDee8j-274" value="" style="whiteSpace=wrap;html=1;aspect=fixed;" vertex="1" parent="1">
          <mxGeometry x="250" y="245" width="40" height="40" as="geometry" />
        </mxCell>
        <mxCell id="oU4J2LEEc_ZFmKRDee8j-275" style="edgeStyle=none;html=1;exitX=0;exitY=0.5;exitDx=0;exitDy=0;entryX=0;entryY=0.5;entryDx=0;entryDy=0;" edge="1" parent="1" target="oU4J2LEEc_ZFmKRDee8j-277">
          <mxGeometry relative="1" as="geometry">
            <mxPoint x="210" y="390" as="sourcePoint" />
          </mxGeometry>
        </mxCell>
        <mxCell id="oU4J2LEEc_ZFmKRDee8j-276" style="edgeStyle=none;html=1;exitX=1;exitY=0.5;exitDx=0;exitDy=0;" edge="1" parent="1" source="oU4J2LEEc_ZFmKRDee8j-277">
          <mxGeometry relative="1" as="geometry">
            <mxPoint x="330" y="390" as="targetPoint" />
          </mxGeometry>
        </mxCell>
        <mxCell id="oU4J2LEEc_ZFmKRDee8j-277" value="" style="whiteSpace=wrap;html=1;aspect=fixed;" vertex="1" parent="1">
          <mxGeometry x="250" y="195" width="40" height="40" as="geometry" />
        </mxCell>
        <mxCell id="oU4J2LEEc_ZFmKRDee8j-278" style="edgeStyle=none;html=1;exitX=1;exitY=0.5;exitDx=0;exitDy=0;entryX=0;entryY=0.5;entryDx=0;entryDy=0;" edge="1" parent="1" source="oU4J2LEEc_ZFmKRDee8j-250" target="oU4J2LEEc_ZFmKRDee8j-280">
          <mxGeometry relative="1" as="geometry" />
        </mxCell>
        <mxCell id="oU4J2LEEc_ZFmKRDee8j-279" style="edgeStyle=none;html=1;exitX=1;exitY=0.5;exitDx=0;exitDy=0;" edge="1" parent="1" source="oU4J2LEEc_ZFmKRDee8j-280">
          <mxGeometry relative="1" as="geometry">
            <mxPoint x="330" y="390" as="targetPoint" />
          </mxGeometry>
        </mxCell>
        <mxCell id="oU4J2LEEc_ZFmKRDee8j-280" value="" style="whiteSpace=wrap;html=1;aspect=fixed;" vertex="1" parent="1">
          <mxGeometry x="250" y="145" width="40" height="40" as="geometry" />
        </mxCell>
        <mxCell id="oU4J2LEEc_ZFmKRDee8j-281" style="edgeStyle=none;html=1;exitX=1;exitY=0.5;exitDx=0;exitDy=0;entryX=0;entryY=0.5;entryDx=0;entryDy=0;" edge="1" parent="1" target="oU4J2LEEc_ZFmKRDee8j-282">
          <mxGeometry relative="1" as="geometry">
            <mxPoint x="450" y="390" as="sourcePoint" />
          </mxGeometry>
        </mxCell>
        <mxCell id="oU4J2LEEc_ZFmKRDee8j-282" value="ENC" style="rounded=0;whiteSpace=wrap;html=1;" vertex="1" parent="1">
          <mxGeometry x="490" y="290" width="40" height="200" as="geometry" />
        </mxCell>
        <mxCell id="oU4J2LEEc_ZFmKRDee8j-285" style="edgeStyle=none;html=1;exitX=0;exitY=0.5;exitDx=0;exitDy=0;entryX=0;entryY=0.5;entryDx=0;entryDy=0;" edge="1" parent="1">
          <mxGeometry relative="1" as="geometry">
            <mxPoint x="570" y="390" as="targetPoint" />
            <mxPoint x="530" y="390.33333333333337" as="sourcePoint" />
          </mxGeometry>
        </mxCell>
        <mxCell id="oU4J2LEEc_ZFmKRDee8j-286" style="edgeStyle=none;html=1;exitX=1;exitY=0.5;exitDx=0;exitDy=0;entryX=0;entryY=0;entryDx=0;entryDy=0;" edge="1" parent="1" target="oU4J2LEEc_ZFmKRDee8j-297">
          <mxGeometry relative="1" as="geometry">
            <mxPoint x="690" y="390" as="sourcePoint" />
          </mxGeometry>
        </mxCell>
        <mxCell id="oU4J2LEEc_ZFmKRDee8j-292" value="" style="whiteSpace=wrap;html=1;aspect=fixed;" vertex="1" parent="1">
          <mxGeometry x="737.5" y="340" width="10" height="10" as="geometry" />
        </mxCell>
        <mxCell id="oU4J2LEEc_ZFmKRDee8j-293" value="" style="whiteSpace=wrap;html=1;aspect=fixed;" vertex="1" parent="1">
          <mxGeometry x="737.5" y="350" width="10" height="10" as="geometry" />
        </mxCell>
        <mxCell id="oU4J2LEEc_ZFmKRDee8j-294" value="" style="whiteSpace=wrap;html=1;aspect=fixed;" vertex="1" parent="1">
          <mxGeometry x="737.5" y="360" width="10" height="10" as="geometry" />
        </mxCell>
        <mxCell id="oU4J2LEEc_ZFmKRDee8j-295" value="" style="whiteSpace=wrap;html=1;aspect=fixed;" vertex="1" parent="1">
          <mxGeometry x="737.5" y="370" width="10" height="10" as="geometry" />
        </mxCell>
        <mxCell id="oU4J2LEEc_ZFmKRDee8j-296" value="" style="whiteSpace=wrap;html=1;aspect=fixed;" vertex="1" parent="1">
          <mxGeometry x="737.5" y="380" width="10" height="10" as="geometry" />
        </mxCell>
        <mxCell id="oU4J2LEEc_ZFmKRDee8j-297" value="" style="whiteSpace=wrap;html=1;aspect=fixed;" vertex="1" parent="1">
          <mxGeometry x="737.5" y="390" width="10" height="10" as="geometry" />
        </mxCell>
        <mxCell id="oU4J2LEEc_ZFmKRDee8j-298" value="" style="whiteSpace=wrap;html=1;aspect=fixed;" vertex="1" parent="1">
          <mxGeometry x="737.5" y="400" width="10" height="10" as="geometry" />
        </mxCell>
        <mxCell id="oU4J2LEEc_ZFmKRDee8j-299" value="" style="whiteSpace=wrap;html=1;aspect=fixed;" vertex="1" parent="1">
          <mxGeometry x="737.5" y="410" width="10" height="10" as="geometry" />
        </mxCell>
        <mxCell id="oU4J2LEEc_ZFmKRDee8j-300" value="" style="whiteSpace=wrap;html=1;aspect=fixed;" vertex="1" parent="1">
          <mxGeometry x="737.5" y="420" width="10" height="10" as="geometry" />
        </mxCell>
        <mxCell id="oU4J2LEEc_ZFmKRDee8j-301" value="" style="whiteSpace=wrap;html=1;aspect=fixed;" vertex="1" parent="1">
          <mxGeometry x="737.5" y="430" width="10" height="10" as="geometry" />
        </mxCell>
        <mxCell id="oU4J2LEEc_ZFmKRDee8j-312" value="" style="whiteSpace=wrap;html=1;aspect=fixed;" vertex="1" parent="1">
          <mxGeometry x="752.5" y="340" width="10" height="10" as="geometry" />
        </mxCell>
        <mxCell id="oU4J2LEEc_ZFmKRDee8j-313" value="" style="whiteSpace=wrap;html=1;aspect=fixed;" vertex="1" parent="1">
          <mxGeometry x="752.5" y="350" width="10" height="10" as="geometry" />
        </mxCell>
        <mxCell id="oU4J2LEEc_ZFmKRDee8j-314" value="" style="whiteSpace=wrap;html=1;aspect=fixed;" vertex="1" parent="1">
          <mxGeometry x="752.5" y="360" width="10" height="10" as="geometry" />
        </mxCell>
        <mxCell id="oU4J2LEEc_ZFmKRDee8j-315" value="" style="whiteSpace=wrap;html=1;aspect=fixed;" vertex="1" parent="1">
          <mxGeometry x="752.5" y="370" width="10" height="10" as="geometry" />
        </mxCell>
        <mxCell id="oU4J2LEEc_ZFmKRDee8j-316" value="" style="whiteSpace=wrap;html=1;aspect=fixed;" vertex="1" parent="1">
          <mxGeometry x="752.5" y="380" width="10" height="10" as="geometry" />
        </mxCell>
        <mxCell id="oU4J2LEEc_ZFmKRDee8j-317" style="edgeStyle=none;html=1;exitX=1;exitY=0;exitDx=0;exitDy=0;entryX=0.5;entryY=1;entryDx=0;entryDy=0;fontSize=12;fontColor=#000000;" edge="1" parent="1" source="oU4J2LEEc_ZFmKRDee8j-318">
          <mxGeometry relative="1" as="geometry">
            <mxPoint x="820" y="390" as="targetPoint" />
          </mxGeometry>
        </mxCell>
        <mxCell id="oU4J2LEEc_ZFmKRDee8j-318" value="" style="whiteSpace=wrap;html=1;aspect=fixed;" vertex="1" parent="1">
          <mxGeometry x="752.5" y="390" width="10" height="10" as="geometry" />
        </mxCell>
        <mxCell id="oU4J2LEEc_ZFmKRDee8j-319" value="" style="whiteSpace=wrap;html=1;aspect=fixed;" vertex="1" parent="1">
          <mxGeometry x="752.5" y="400" width="10" height="10" as="geometry" />
        </mxCell>
        <mxCell id="oU4J2LEEc_ZFmKRDee8j-320" value="" style="whiteSpace=wrap;html=1;aspect=fixed;" vertex="1" parent="1">
          <mxGeometry x="752.5" y="410" width="10" height="10" as="geometry" />
        </mxCell>
        <mxCell id="oU4J2LEEc_ZFmKRDee8j-321" value="" style="whiteSpace=wrap;html=1;aspect=fixed;" vertex="1" parent="1">
          <mxGeometry x="752.5" y="420" width="10" height="10" as="geometry" />
        </mxCell>
        <mxCell id="oU4J2LEEc_ZFmKRDee8j-322" value="" style="whiteSpace=wrap;html=1;aspect=fixed;" vertex="1" parent="1">
          <mxGeometry x="752.5" y="430" width="10" height="10" as="geometry" />
        </mxCell>
        <mxCell id="oU4J2LEEc_ZFmKRDee8j-344" value="&lt;b&gt;Input&lt;/b&gt;" style="text;html=1;strokeColor=none;fillColor=none;align=center;verticalAlign=middle;whiteSpace=wrap;rounded=0;" vertex="1" parent="1">
          <mxGeometry x="240" y="90" width="60" height="40" as="geometry" />
        </mxCell>
        <mxCell id="oU4J2LEEc_ZFmKRDee8j-347" value="&lt;b&gt;Org. Image&lt;/b&gt;" style="text;html=1;strokeColor=none;fillColor=none;align=center;verticalAlign=middle;whiteSpace=wrap;rounded=0;" vertex="1" parent="1">
          <mxGeometry x="160" y="90" width="60" height="40" as="geometry" />
        </mxCell>
        <mxCell id="oU4J2LEEc_ZFmKRDee8j-349" value="&lt;font style=&quot;font-size: 8px;&quot;&gt;Shadow&lt;/font&gt;" style="text;html=1;strokeColor=none;fillColor=none;align=center;verticalAlign=middle;whiteSpace=wrap;rounded=0;" vertex="1" parent="1">
          <mxGeometry x="741.25" y="320" width="2.5" as="geometry" />
        </mxCell>
        <mxCell id="oU4J2LEEc_ZFmKRDee8j-350" value="&lt;font style=&quot;font-size: 8px;&quot;&gt;Light&lt;/font&gt;" style="text;html=1;strokeColor=none;fillColor=none;align=center;verticalAlign=middle;whiteSpace=wrap;rounded=0;" vertex="1" parent="1">
          <mxGeometry x="756.25" y="330" width="2.5" as="geometry" />
        </mxCell>
        <mxCell id="oU4J2LEEc_ZFmKRDee8j-353" value="VIDEO SWIN ENCODER" style="shape=trapezoid;perimeter=trapezoidPerimeter;whiteSpace=wrap;fixedSize=1;fontSize=12;rotation=90;html=1;" vertex="1" parent="1">
          <mxGeometry x="150" y="330" width="480" height="120" as="geometry" />
        </mxCell>
        <mxCell id="oU4J2LEEc_ZFmKRDee8j-355" value="3DUNET&lt;br&gt;DECODER SL" style="shape=trapezoid;perimeter=trapezoidPerimeter;whiteSpace=wrap;html=1;fixedSize=1;fontSize=12;rotation=-90;" vertex="1" parent="1">
          <mxGeometry x="570" y="330" width="120" height="120" as="geometry" />
        </mxCell>
      </root>
    </mxGraphModel>
  </diagram>
</mxfile>
